#N canvas 415 386 493 385 10;
#X obj 35 87 netreceive -u -b 4559;
#X obj 35 115 oscparse;
#X obj 35 147 print parse-output;
#X msg 35 39 listen 0;
#X msg 35 63 listen 4559;
#X floatatom 174 198 5 0 0 0 - - -, f 5;
#X obj 174 172 route play_this;
#X obj 174 146 list trim;
#X obj 174 294 osc~;
#X obj 175 321 dac~;
#X obj 174 245 line;
#X floatatom 174 267 5 0 0 0 - - -, f 5;
#X msg 174 222 \$1 200;
#X msg 315 38 \; pd dsp 1 \;;
#X msg 316 81 \; pd dsp 0 \;;
#X connect 0 0 1 0;
#X connect 1 0 2 0;
#X connect 1 0 7 0;
#X connect 3 0 0 0;
#X connect 4 0 0 0;
#X connect 5 0 12 0;
#X connect 6 0 5 0;
#X connect 7 0 6 0;
#X connect 8 0 9 0;
#X connect 8 0 9 1;
#X connect 10 0 11 0;
#X connect 11 0 8 0;
#X connect 12 0 10 0;
